<svg xmlns="http://www.w3.org/2000/svg" width="63.342" height="90.333" viewBox="0 0 63.342 90.333">
  <path id="Path_16" data-name="Path 16" d="M555.454,405.112a19.053,19.053,0,0,1,3.459,10.92,19.933,19.933,0,0,1-2.44,9.563,23.873,23.873,0,0,1-7.053,7.933,37.053,37.053,0,0,1-22.11,6.782,40.12,40.12,0,0,1-11.936-1.763,34.429,34.429,0,0,1-10.172-5.019q-7.731-5.693-9.359-13.97l5.831-3.255q.408,7.461,7.325,12.207a25.37,25.37,0,0,0,8.274,4.138,34.781,34.781,0,0,0,10.036,1.424q10.849,0,18.31-5.562,7.187-5.287,7.189-12.478a13.184,13.184,0,0,0-2.644-7.868,21.667,21.667,0,0,0-7.392-6.238q-4.477-2.3-16.006-3.662-.948-.136-6.85-1.085a36.478,36.478,0,0,1-10.1-2.984,27.026,27.026,0,0,1-10.443-8.613,19.642,19.642,0,0,1-3.8-11.6,18.727,18.727,0,0,1,2.511-9.424,25.156,25.156,0,0,1,7.12-7.8,34.525,34.525,0,0,1,10.172-5.018,40.164,40.164,0,0,1,11.936-1.764,37.062,37.062,0,0,1,22.11,6.782q7.863,5.969,9.223,13.836l-5.833,3.254a13.816,13.816,0,0,0-1.967-6.512,19.9,19.9,0,0,0-5.222-5.7,27.078,27.078,0,0,0-8.409-4.138,34.318,34.318,0,0,0-9.9-1.423,35.005,35.005,0,0,0-9.969,1.423A25.327,25.327,0,0,0,509,361.643a19.7,19.7,0,0,0-5.425,5.763,12.668,12.668,0,0,0-1.9,6.577,13.777,13.777,0,0,0,3.12,8.344,21.667,21.667,0,0,0,7.73,6.441,24.356,24.356,0,0,0,6.307,1.968q3.458.61,8.884,1.29.948.136,4.749.677a62.307,62.307,0,0,1,7.324,1.492,26.693,26.693,0,0,1,5.969,2.307A28.237,28.237,0,0,1,555.454,405.112Z" transform="translate(-495.571 -349.977)" fill="#fff"/>
</svg>
